<?xml version="1.0"?>
<svg xmlns="http://www.w3.org/2000/svg" viewBox="0 0 50 50">
    <path d="M 40 6 C 38.706841 6 37.604859 6.84267 37.1875 8 L 36.414062 8 L 35.207031 6.7929688 A 1.0001 1.0001 0 0 0 34.490234 6.4902344 A 1.0001 1.0001 0 0 0 33.792969 8.2070312 L 36.585938 11 L 35.480469 12.105469 L 35.289062 11.914062 C 34.88796 11.512958 34.3281 11.450613 33.914062 11.535156 C 33.500028 11.619696 33.149427 11.826052 32.853516 12.121094 L 32.853516 12.123047 L 27.123047 17.851562 C 26.826877 18.147734 26.619531 18.499479 26.535156 18.914062 C 26.450786 19.328647 26.515436 19.888483 26.916016 20.289062 L 27.105469 20.480469 L 26 21.585938 L 25.414062 21 L 26.207031 20.207031 L 24.792969 18.792969 L 24.292969 19.292969 L 21.707031 16.707031 L 22.707031 15.707031 L 21.292969 14.292969 L 20 15.585938 L 19.207031 14.792969 A 1.0001 1.0001 0 1 0 17.792969 16.207031 L 18.585938 17 L 17.292969 18.292969 L 18.707031 19.707031 L 19.707031 18.707031 L 22.292969 21.292969 L 22 21.585938 L 21.414062 21 C 21.02777 20.613708 20.514198 20.419879 20 20.419922 C 19.485802 20.419965 18.971972 20.612974 18.585938 21 L 10 29.585938 C 9.2274155 30.358521 9.2259488 31.641992 10 32.414062 L 10.292969 32.707031 L 5 38 L 5.5 38.5 L 3 41 L 1 44 L 4 42 L 6.5 39.5 L 7 40 L 12.292969 34.707031 L 12.585938 35 C 13.358522 35.772584 14.641993 35.774051 15.414062 35 L 24 26.414062 C 24.773167 25.640895 24.773167 24.359105 24 23.585938 L 23.414062 23 L 24 22.414062 L 35.292969 33.707031 L 35.707031 34.121094 L 37.121094 32.707031 C 36.722167 32.308104 36.722167 31.691896 37.121094 31.292969 L 46.292969 22.121094 C 46.691896 21.722167 47.308104 21.722167 47.707031 22.121094 L 49.121094 20.707031 L 48.363281 19.949219 A 1.0001 1.0001 0 0 0 48.707031 18.292969 L 47.707031 17.292969 A 1.0001 1.0001 0 0 0 46.990234 16.990234 A 1.0001 1.0001 0 0 0 46.054688 17.640625 L 40.376953 11.962891 C 41.504517 11.817304 42.436718 11.042039 42.8125 10 L 45 10 L 45 8 L 42.8125 8 C 42.395141 6.84267 41.293159 6 40 6 z M 40 8 C 40.564129 8 41 8.4358706 41 9 C 41 9.5641294 40.564129 10 40 10 C 39.435871 10 39 9.5641294 39 9 C 39 8.4358706 39.435871 8 40 8 z M 38 12.414062 L 41.585938 16 L 40.480469 17.105469 L 40.289062 16.914062 C 39.88796 16.512958 39.3281 16.450613 38.914062 16.535156 C 38.500028 16.619696 38.149427 16.826052 37.853516 17.121094 L 37.853516 17.123047 L 32.123047 22.851562 C 31.826877 23.147734 31.619531 23.499481 31.535156 23.914062 C 31.450786 24.328647 31.515436 24.888482 31.916016 25.289062 L 32.105469 25.480469 L 31 26.585938 L 27.414062 23 L 28.519531 21.894531 L 28.710938 22.083984 C 29.112042 22.485089 29.673855 22.549387 30.087891 22.464844 C 30.501926 22.380304 30.850573 22.171995 31.146484 21.876953 L 31.148438 21.876953 L 36.876953 16.146484 C 37.173343 15.850095 37.380682 15.499753 37.464844 15.085938 C 37.549004 14.672118 37.486114 14.114852 37.085938 13.712891 L 37.085938 13.710938 L 36.894531 13.519531 L 38 12.414062 z M 34.175781 13.628906 L 35.371094 14.824219 L 29.826172 20.369141 L 28.630859 19.173828 L 34.175781 13.628906 z M 43 17.414062 L 45.085938 19.5 L 34.5 30.085938 L 32.414062 28 L 33.519531 26.894531 L 33.710938 27.083984 C 34.11204 27.485089 34.673855 27.549387 35.087891 27.464844 C 35.501926 27.380304 35.850573 27.171995 36.146484 26.876953 L 36.148438 26.876953 L 41.876953 21.146484 C 42.173343 20.850095 42.380682 20.499754 42.464844 20.085938 C 42.549004 19.67212 42.486114 19.114852 42.085938 18.712891 L 42.085938 18.710938 L 41.894531 18.519531 L 43 17.414062 z M 39.175781 18.628906 L 40.371094 19.824219 L 34.826172 25.369141 L 33.630859 24.173828 L 39.175781 18.628906 z M 20 22.414062 L 20.001953 22.414062 L 22.585938 25 L 14 33.585938 L 13.998047 33.585938 L 11.414062 31 L 11.414062 30.998047 L 20 22.414062 z"/>
</svg>
