<?xml version="1.0" encoding="iso-8859-1"?>
<!-- Generator: Adobe Illustrator 18.0.0, SVG Export Plug-In . SVG Version: 6.00 Build 0)  -->
<!DOCTYPE svg PUBLIC "-//W3C//DTD SVG 1.1//EN" "http://www.w3.org/Graphics/SVG/1.1/DTD/svg11.dtd">
<svg version="1.1" id="Capa_1" xmlns="http://www.w3.org/2000/svg" xmlns:xlink="http://www.w3.org/1999/xlink" x="0px" y="0px"
	 viewBox="0 0 442.546 442.546" style="enable-background:new 0 0 442.546 442.546;" xml:space="preserve">
<g>
	<path d="M389.017,2.185c-1.459-1.77-3.801-2.554-6.029-2.02c-42.375,10.156-81.184,30.805-115.349,61.372
		c-27.211,24.345-51.532,54.991-72.291,91.089c-32.993,57.373-46.144,109.275-48.12,117.587c-5.635,8.52-11.134,17.02-16.405,25.34
		h-29.167c-13.646,0-24.749,11.103-24.749,24.749c0,12.631,9.512,23.083,21.749,24.568v9.18h-2.249
		c-24.398,0-44.248,19.85-44.248,44.248s19.85,44.248,44.248,44.248h74.996c24.398,0,44.248-19.85,44.248-44.248
		s-19.85-44.248-44.248-44.248h-2.25v-9.18c12.237-1.485,21.749-11.938,21.749-24.568c0-13.646-11.103-24.749-24.749-24.749h-21.103
		c3.864-6.03,7.832-12.129,11.872-18.241c7.447-3.617,39.395-20.195,80.8-57.027c42.643-37.933,103.65-105.469,152.122-211.795
		C390.797,6.402,390.475,3.955,389.017,2.185z M171.404,366.05c17.781,0,32.248,14.467,32.248,32.248s-14.467,32.248-32.248,32.248
		H96.408c-17.781,0-32.248-14.467-32.248-32.248s14.467-32.248,32.248-32.248H171.404z M110.657,345.051h46.497v8.999h-46.497
		V345.051z M178.903,320.302c0,7.03-5.719,12.749-12.749,12.749h-64.497c-7.03,0-12.749-5.719-12.749-12.749
		s5.719-12.749,12.749-12.749h64.497C173.184,307.553,178.903,313.272,178.903,320.302z M230.187,210.927
		c-23.463,20.921-44.008,35.236-58.382,44.187c40.748-59.757,108.734-151.634,182.094-217.653c2.463-2.217,2.663-6.011,0.446-8.474
		s-6.011-2.664-8.474-0.446c-69.506,62.551-134.083,147.796-175.765,207.871c7.484-21.067,19.012-48.881,35.644-77.803
		c20.12-34.987,43.634-64.638,69.89-88.129c29.333-26.244,62.204-44.831,97.873-55.365
		C326.982,112.603,270.265,175.192,230.187,210.927z"/>
	<path d="M160.419,375.973c0,3.313,2.687,6,6,6c11.182,0,20.279,9.098,20.279,20.279c0,3.313,2.687,6,6,6s6-2.687,6-6
		c0-17.799-14.48-32.279-32.279-32.279C163.105,369.973,160.419,372.659,160.419,375.973z"/>
</g>
<g>
</g>
<g>
</g>
<g>
</g>
<g>
</g>
<g>
</g>
<g>
</g>
<g>
</g>
<g>
</g>
<g>
</g>
<g>
</g>
<g>
</g>
<g>
</g>
<g>
</g>
<g>
</g>
<g>
</g>
</svg>
